<svg version="1.1" id="Layer_1" xmlns="http://www.w3.org/2000/svg" xmlns:xlink="http://www.w3.org/1999/xlink" x="0px" y="0px"
	 viewBox="0 0 32 20" style="enable-background:new 0 0 32 20;" xml:space="preserve">
<path d="M16.1,0C6,0,0,10,0,10s6,10,16.1,10C26,20,32,10,32,10S26,0,16.1,0z M16,3c3.9,0,7,3.1,7,7s-3.1,7-7,7s-7-3.1-7-7
	S12.1,3,16,3z M16,6c-2.2,0-4,1.8-4,4s1.8,4,4,4s4-1.8,4-4c0-0.6-0.1-1.1-0.3-1.6C19.4,8.8,19,9,18.5,9C17.7,9,17,8.3,17,7.5
	c0-0.5,0.2-0.9,0.6-1.2C17.1,6.1,16.6,6,16,6L16,6z"/>
</svg>
