<svg version="1.1" id="Layer_1" xmlns="http://www.w3.org/2000/svg" xmlns:xlink="http://www.w3.org/1999/xlink" x="0px" y="0px"
	 viewBox="0 0 379.8 27.9" style="enable-background:new 0 0 379.8 27.9;" xml:space="preserve">
<g>
	<path fill="#fff" id="squarespace-logo-horizontal_4_" d="M251.2,13.9L251.2,13.9c0-4-2.9-7.4-7.2-7.4c-4.3,0-7.3,3.4-7.3,7.4v0
		c0,3.9,2.9,7.3,7.2,7.3c1.8,0,3.3-0.6,4.5-1.5l1.9,1.7l1.1-1.2l-1.9-1.6C250.6,17.4,251.2,15.7,251.2,13.9z M248.3,17.6l-2.6-2.4
		l-1.1,1.2l2.6,2.3c-0.9,0.7-2,1.1-3.3,1.1c-3.3,0-5.6-2.6-5.6-5.9v0c0-3.2,2.3-5.8,5.6-5.8c3.3,0,5.6,2.6,5.6,5.9v0
		C249.5,15.3,249.1,16.6,248.3,17.6z M264.6,15c0,3.1-1.7,4.7-4.3,4.7c-2.7,0-4.4-1.7-4.4-4.8V6.8h-1.6V15c0,4,2.4,6.2,5.9,6.2
		c3.6,0,5.9-2.2,5.9-6.3V6.8h-1.6V15z M360.9,19.8c-3.1,0-5.5-2.6-5.5-5.9v0c0-3.3,2.4-5.8,5.5-5.8c1.9,0,3.3,0.8,4.5,2l1.1-1.2
		c-1.4-1.3-3-2.3-5.6-2.3c-4.2,0-7.2,3.3-7.2,7.4v0c0,4.1,3,7.3,7.1,7.3c2.6,0,4.2-1,5.7-2.5l-1.1-1C364.2,19,362.9,19.8,360.9,19.8
		z M371,19.5v-5h7.8v-1.5H371V8.2h8.7V6.8h-10.3V21h10.4v-1.5H371z M332.3,6.8H327V21h1.6v-5h3.5c3,0,5.6-1.6,5.6-4.7v0
		C337.6,8.5,335.5,6.8,332.3,6.8z M336,11.4c0,1.9-1.5,3.1-3.9,3.1h-3.5V8.2h3.6C334.5,8.2,336,9.3,336,11.4L336,11.4z M229.4,13.1
		c-3.1-0.7-3.9-1.4-3.9-2.8v0c0-1.3,1.2-2.3,3-2.3c1.5,0,2.8,0.5,4.1,1.5l0.9-1.2c-1.4-1.2-2.9-1.8-5-1.8c-2.7,0-4.7,1.6-4.7,3.9v0
		c0,2.3,1.5,3.4,4.8,4.1c3,0.6,3.7,1.4,3.7,2.7v0c0,1.4-1.3,2.4-3.2,2.4c-2,0-3.4-0.7-4.9-2l-1,1.2c1.7,1.5,3.6,2.3,5.8,2.3
		c2.8,0,4.9-1.6,4.9-4v0C234,15,232.5,13.8,229.4,13.1z M301.9,14.5h7.8v-1.5h-7.8V8.2h8.7V6.8h-10.3V21h10.4v-1.5h-8.8V14.5z
		 M319,13.1c-3.1-0.7-3.9-1.4-3.9-2.8v0c0-1.3,1.2-2.3,3-2.3c1.5,0,2.8,0.5,4.1,1.5l0.9-1.2c-1.4-1.2-2.9-1.8-5-1.8
		c-2.7,0-4.7,1.6-4.7,3.9v0c0,2.3,1.5,3.4,4.8,4.1c3,0.6,3.7,1.4,3.7,2.7v0c0,1.4-1.3,2.4-3.2,2.4c-2,0-3.4-0.7-4.9-2l-1,1.2
		c1.7,1.5,3.6,2.3,5.8,2.3c2.8,0,4.9-1.6,4.9-4v0C323.7,15,322.2,13.8,319,13.1z M274.8,6.6L268.3,21h1.6l1.7-3.8h7.8l1.7,3.8h1.7
		l-6.5-14.3H274.8z M272.3,15.8l3.3-7.3l3.2,7.3H272.3z M344.4,6.6L337.9,21h1.6l1.7-3.8h7.8l1.7,3.8h1.7l-6.5-14.3H344.4z
		 M341.9,15.8l3.3-7.3l3.2,7.3H341.9z M296.9,11L296.9,11c0-1.2-0.4-2.2-1.1-2.8c-0.9-0.9-2.3-1.4-4-1.4h-6.1V21h1.6v-5.5h4.1
		l4.1,5.5h2l-4.4-5.8C295.2,14.8,296.9,13.4,296.9,11z M287.2,14V8.2h4.4c2.3,0,3.6,1.1,3.6,2.8v0c0,1.8-1.5,2.9-3.7,2.9H287.2z"/>
	<g>
		<path fill="#fff" d="M0,9.1h2.1V13h3.9V9.1h2.1v9.7H6.1v-3.9H2.1v3.9H0V9.1z"/>
		<path fill="#fff" d="M20.1,14L20.1,14c0-2.8,2.2-5,5.2-5c3,0,5.1,2.2,5.1,5v0c0,2.7-2.2,5-5.2,5C22.2,19,20.1,16.7,20.1,14z M28.1,14L28.1,14
			c0-1.7-1.2-3.1-2.9-3.1c-1.7,0-2.9,1.4-2.9,3v0c0,1.7,1.2,3,2.9,3C27,17,28.1,15.6,28.1,14z"/>
		<path fill="#fff" d="M41.5,17.4l1.3-1.5c0.9,0.7,1.8,1.2,2.9,1.2c0.9,0,1.4-0.3,1.4-0.9v0c0-0.5-0.3-0.8-1.9-1.2c-1.9-0.5-3.2-1-3.2-3v0
			c0-1.8,1.4-2.9,3.4-2.9c1.4,0,2.6,0.4,3.6,1.2l-1.1,1.6c-0.9-0.6-1.7-1-2.5-1c-0.8,0-1.2,0.4-1.2,0.8v0c0,0.6,0.4,0.8,2.1,1.3
			c2,0.5,3.1,1.2,3.1,2.9v0c0,1.9-1.5,3-3.6,3C44.2,18.9,42.7,18.4,41.5,17.4z"/>
		<path fill="#fff" d="M63.1,11.1h-2.9v-2h8v2h-2.9v7.7h-2.1V11.1z"/>
		<path fill="#fff" d="M79.8,9.1h7.3V11h-5.2v2h4.6v1.9h-4.6v2h5.2v1.9h-7.4V9.1z"/>
		<path fill="#fff" d="M99.1,9.1h3.8c3,0,5.1,2.1,5.1,4.8v0c0,2.7-2.1,4.8-5.1,4.8h-3.8V9.1z M101.2,11v5.8h1.6c1.7,0,2.9-1.2,2.9-2.9v0
			c0-1.7-1.2-2.9-2.9-2.9H101.2z"/>
		<path fill="#fff" d="M127.9,9.1h4.5c1.1,0,2,0.3,2.5,0.9c0.4,0.4,0.7,1,0.7,1.6v0c0,1.1-0.6,1.7-1.3,2.1c1.1,0.4,1.8,1.1,1.8,2.4v0
			c0,1.8-1.4,2.7-3.6,2.7h-4.6V9.1z M133.4,12c0-0.6-0.5-1-1.4-1h-2.1v2h2C132.8,13,133.4,12.7,133.4,12L133.4,12z M132.4,14.8h-2.5
			v2.1h2.5c0.9,0,1.5-0.3,1.5-1.1v0C134,15.2,133.5,14.8,132.4,14.8z"/>
		<path fill="#fff" d="M150.2,15l-3.7-5.9h2.5l2.3,3.9l2.3-3.9h2.4l-3.7,5.8v3.9h-2.1V15z"/>
	</g>
	<g>
		<path fill="#fff" d="M177.9,15.2c0.7,0.7,1.7,0.7,2.4,0l10.8-10.8c1.3-1.3,3.5-1.3,4.8,0c0.7,0.7,1.7,0.7,2.4,0c0.7-0.7,0.7-1.7,0-2.4
			c-2.6-2.6-6.9-2.6-9.6,0l-10.8,10.8C177.3,13.4,177.3,14.5,177.9,15.2z"/>
		<path fill="#fff" d="M194.7,8c0.7-0.7,0.7-1.7,0-2.4c-0.7-0.7-1.7-0.7-2.4,0l-10.8,10.8c-1.3,1.3-3.5,1.3-4.8,0c-1.3-1.3-1.3-3.5,0-4.8
			L187.3,1c-1.3-1.3-3.5-1.3-4.8,0l-8.2,8.2c-2.6,2.6-2.6,6.9,0,9.6c2.6,2.6,6.9,2.6,9.6,0L194.7,8z"/>
		<path fill="#fff" d="M195.9,9.2L185.1,20c-0.7,0.7-0.7,1.7,0,2.4c0.7,0.7,1.7,0.7,2.4,0l10.8-10.8c1.3-1.3,3.5-1.3,4.8,0
			c1.3,1.3,1.3,3.5,0,4.8l-10.6,10.6c1.3,1.3,3.5,1.3,4.8,0l8.2-8.2c2.6-2.6,2.6-6.9,0-9.6C202.8,6.5,198.5,6.5,195.9,9.2z"/>
		<path fill="#fff" d="M201.9,12.8c-0.7-0.7-1.7-0.7-2.4,0l-10.8,10.8c-1.3,1.3-3.5,1.3-4.8,0c-0.7-0.7-1.7-0.7-2.4,0c-0.7,0.7-0.7,1.7,0,2.4
			c2.6,2.6,6.9,2.6,9.6,0l10.8-10.8C202.6,14.5,202.6,13.4,201.9,12.8z"/>
	</g>
</g>
</svg>
