<svg version="1.1" id="Layer_1" xmlns="http://www.w3.org/2000/svg" xmlns:xlink="http://www.w3.org/1999/xlink" x="0px" y="0px"
	 viewBox="0 0 91.8 79.5" style="enable-background:new 0 0 91.8 79.5;" xml:space="preserve">
<style type="text/css">
	.st0{fill:#FFFFFF;}
</style>
<g id="XMLID_26_">
	<polygon id="XMLID_121_" class="st0" points="18.8,26.5 5.2,3 86.6,3 73,26.5 76.5,26.5 91.8,0 0,0 15.3,26.5 	"/>
	<polygon id="XMLID_165_" class="st0" points="56,55.9 45.9,73.5 35.8,55.9 32.3,55.9 45.9,79.5 59.5,55.9 	"/>
</g>
<g id="XMLID_4_">
	<path id="XMLID_35_" class="st0" d="M5.6,38.8h8.3V41H8v2.2h5.2v2.2H8v2.3h6v2.2H5.6V38.8z"/>
	<path id="XMLID_50_" class="st0" d="M18.1,38.8h4.5c2.6,0,4.2,1.6,4.2,3.8v0c0,2.6-2,3.9-4.5,3.9h-1.8v3.3h-2.4V38.8z M22.5,44.4
		c1.2,0,1.9-0.7,1.9-1.7v0c0-1.1-0.8-1.7-2-1.7h-1.9v3.4H22.5z"/>
	<path id="XMLID_56_" class="st0" d="M30.7,38.8h2.4v11h-2.4V38.8z"/>
	<path id="XMLID_58_" class="st0" d="M37.1,48.3l1.4-1.7c1,0.8,2,1.3,3.3,1.3c1,0,1.6-0.4,1.6-1v0c0-0.6-0.4-0.9-2.2-1.4
		c-2.2-0.6-3.7-1.2-3.7-3.4v0c0-2,1.6-3.3,3.9-3.3c1.6,0,3,0.5,4.1,1.4l-1.3,1.8c-1-0.7-1.9-1.1-2.9-1.1s-1.4,0.4-1.4,1v0
		c0,0.7,0.5,1,2.4,1.5c2.2,0.6,3.5,1.4,3.5,3.3v0c0,2.2-1.7,3.4-4.1,3.4C40.1,50,38.4,49.5,37.1,48.3z"/>
	<path id="XMLID_62_" class="st0" d="M49.4,44.4L49.4,44.4c0-3.2,2.5-5.7,5.9-5.7s5.9,2.5,5.9,5.7v0c0,3.1-2.5,5.7-5.9,5.7
		C51.9,50.1,49.4,47.5,49.4,44.4z M58.6,44.4L58.6,44.4c0-1.9-1.4-3.5-3.3-3.5c-2,0-3.3,1.5-3.3,3.4v0c0,1.9,1.4,3.5,3.3,3.5
		C57.2,47.8,58.6,46.3,58.6,44.4z"/>
	<path id="XMLID_65_" class="st0" d="M65.3,38.8h4.3c3.5,0,5.9,2.4,5.9,5.5v0c0,3.1-2.4,5.5-5.9,5.5h-4.3V38.8z M69.6,47.7
		c2,0,3.3-1.3,3.3-3.3v0c0-2-1.3-3.3-3.3-3.3h-1.9v6.7H69.6z"/>
	<path id="XMLID_89_" class="st0" d="M79.5,38.8h8.3V41H82v2.2h5.2v2.2H82v2.3h6v2.2h-8.4V38.8z"/>
</g>
</svg>