<svg version="1.1" id="Layer_1" xmlns="http://www.w3.org/2000/svg" xmlns:xlink="http://www.w3.org/1999/xlink" x="0px" y="0px"
	 viewBox="0 0 100 100" style="enable-background:new 0 0 100 100;" xml:space="preserve">
<path fill="#ffffff" d="M94.9,85.7L69.1,60c3.7-5.5,5.8-12.2,5.8-19.3C74.9,21.4,59.2,5.8,40,5.8C20.7,5.8,5.1,21.4,5.1,40.7
	S20.7,75.6,40,75.6c7.8,0,15-2.6,20.8-6.9l25.5,25.5L94.9,85.7z M40,63.6c-12.6,0-22.9-10.3-22.9-22.9C17,28,27.3,17.8,40,17.8
	c12.6,0,22.9,10.3,22.9,22.9C62.9,53.3,52.6,63.6,40,63.6z"/>
</svg>
