<svg version="1.1" id="Layer_1" xmlns="http://www.w3.org/2000/svg" xmlns:xlink="http://www.w3.org/1999/xlink" x="0px" y="0px"
	 viewBox="0 0 620.9 332.5" style="enable-background:new 0 0 620.9 332.5;" xml:space="preserve">
<style type="text/css">
	.st0{fill:#FFFFFF;}
</style>
<g>
	<g>
		<rect x="0" width="95.3" height="130.6"/>
		<rect x="109.2" width="95.3" height="130.6"/>
		<rect x="218.5" width="95.3" height="130.6"/>
		<rect x="327.7" width="95.3" height="130.6"/>
		<rect x="437.3" width="95.3" height="130.6"/>
		<rect x="369.9" y="201.9" width="162.7" height="130.6"/>
		<rect x="546.5" width="74.4" height="332.5"/>
		<rect x="0" y="144.6" width="355.6" height="187.9"/>
		<rect x="369.9" y="144.6" width="162.7" height="43"/>
	</g>
	<g>
		<line class="st0" x1="0" y1="144.6" x2="0" y2="332.5"/>
		<polygon class="st0" points="313.6,223.9 304.8,233.6 294.6,225.6 290.9,205.7 306.8,188.2 		"/>
		<polygon class="st0" points="304,185.9 288.1,203.5 268.7,203.5 246.2,185.9 		"/>
		<polygon class="st0" points="229.7,223.9 220.9,233.6 210.7,225.6 207,205.7 222.9,188.2 		"/>
		<polygon class="st0" points="218.5,236.2 209.8,245.8 192.7,245.8 179.8,235.8 186.6,228.3 208.3,228.3 		"/>
		<polygon class="st0" points="220.1,185.9 204.1,203.5 184.8,203.5 162.3,185.9 		"/>
		<polygon class="st0" points="99.9,223.9 91.1,233.6 80.9,225.6 77.1,205.7 93.1,188.2 		"/>
		<polygon class="st0" points="88.7,236.2 79.9,245.8 62.9,245.8 50,235.8 56.8,228.3 78.5,228.3 		"/>
		<polygon class="st0" points="90.2,185.9 74.3,203.5 54.9,203.5 32.5,185.9 		"/>
		<polygon class="st0" points="30,188.6 52.5,206.1 55.8,224 47.1,233.6 37,225.6 		"/>
		<polygon class="st0" points="44.8,268 67.6,268 48.9,289.5 		"/>
		<polygon class="st0" points="52.3,291.1 67.5,273.6 87,273.6 109.4,291.1 		"/>
		<polygon class="st0" points="89.4,270.9 84.7,245.9 91.5,238.4 104.4,248.5 111.9,288.4 		"/>
		<polygon class="st0" points="119.8,203.5 139,203.5 143.7,228.3 124.5,228.3 		"/>
		<polygon class="st0" points="133,273.6 127.8,245.7 147,245.8 152.2,273.6 		"/>
		<polygon class="st0" points="159.9,188.6 186,209 163.7,209 		"/>
		<polygon class="st0" points="174.7,268 197.4,268 178.7,289.5 		"/>
		<polygon class="st0" points="182.1,291.1 197.3,273.6 216.8,273.6 239.3,291.1 		"/>
		<polygon class="st0" points="219.2,270.9 214.5,245.9 221.3,238.4 234.2,248.5 241.7,288.4 		"/>
		<polygon class="st0" points="250.7,225.6 243.8,188.6 266.2,206.1 269.6,224 260.9,233.6 250.9,225.8 		"/>
		<polygon class="st0" points="254.5,245.9 261.3,238.4 274.2,248.5 278.4,271.3 262.7,289.5 		"/>
		<polygon class="st0" points="266,291.1 281.2,273.6 300.7,273.6 323.2,291.1 		"/>
		<polygon class="st0" points="303.1,270.9 298.4,245.9 305.2,238.4 318.1,248.5 325.6,288.4 		"/>
		<polygon class="st0" points="63.4,97.8 31.9,97.8 31.9,32.8 45,32.8 45,86.8 63.4,86.8 		"/>
		<polygon class="st0" points="172.2,42.4 163.4,42.4 163.4,88.2 172.2,88.2 172.2,97.8 141.6,97.8 141.6,88.2 150.3,88.2 
			150.3,42.4 141.6,42.4 141.6,32.8 172.2,32.8 		"/>
		<polygon class="st0" points="275.8,97.8 256.7,97.8 244.6,32.8 257.8,32.8 266.6,87.9 275.5,32.8 287.7,32.8 		"/>
		<polygon class="st0" points="392.7,97.8 358.1,97.8 358.1,32.8 392.5,32.8 392.5,43.6 371.2,43.6 371.2,59.4 390.5,59.4 
			390.5,70.2 371.2,70.2 371.2,87 392.7,87 		"/>
		<path class="st0" d="M477.1,32.8h-10.7L459,69.1h6.8l1.5-8.3h8.4l1.5,8.3h7.2L477.1,32.8z M468.3,55l3.2-18.2l3.2,18.2H468.3z"/>
		<rect x="459" y="92.5" class="st0" width="51.9" height="5.4"/>
		<polygon class="st0" points="510.9,39.1 503.3,39.1 503.3,69.1 496,69.1 496,39.1 488.3,39.1 488.3,32.8 510.9,32.8 		"/>
		<path class="st0" d="M470.8,239.3c1.5,1.5,1.5,4,0,5.6c-1.5,1.5-4,1.5-5.6,0c-3.1-3.1-8.1-3.1-11.2,0L428.9,270
			c-1.5,1.5-4,1.5-5.6,0c-1.5-1.5-1.5-4,0-5.6l25.1-25.1C454.6,233.1,464.6,233.1,470.8,239.3z"/>
		<path class="st0" d="M415,278.3c-6.2-6.2-6.2-16.1,0-22.3l19-19c3.1-3.1,8.1-3.1,11.2,0l-24.6,24.6c-3.1,3.1-3.1,8.1,0,11.2
			c3.1,3.1,8.1,3.1,11.2,0l25.1-25.1c1.5-1.5,4-1.5,5.6,0c1.5,1.5,1.5,4,0,5.6l-25.1,25.1C431.2,284.5,421.2,284.5,415,278.3z"/>
		<path class="st0" d="M431.7,295.1c-1.5-1.5-1.5-4,0-5.6c1.5-1.5,4-1.5,5.6,0c3.1,3.1,8.1,3.1,11.2,0l25.1-25.1
			c1.5-1.5,4-1.5,5.6,0c1.5,1.5,1.5,4,0,5.6L454,295.1C447.9,301.2,437.9,301.2,431.7,295.1z"/>
		<path class="st0" d="M487.5,278.3l-19,19c-3.1,3.1-8.1,3.1-11.2,0l24.6-24.6c3.1-3.1,3.1-8.1,0-11.2c-3.1-3.1-8.1-3.1-11.2,0
			l-25.1,25.1c-1.5,1.5-4,1.5-5.6,0c-1.5-1.5-1.5-4,0-5.6l25.1-25.1c6.2-6.2,16.1-6.2,22.3,0C493.7,262.2,493.7,272.2,487.5,278.3z"
			/>
		<polygon class="st0" points="397.6,173.1 394.5,173.1 394.5,167.4 388.8,167.4 388.8,173.1 385.7,173.1 385.7,159.1 388.8,159.1 
			388.8,164.6 394.5,164.6 394.5,159.1 397.6,159.1 		"/>
		<path class="st0" d="M430.9,168.9c0,2.8-2.1,4.3-5.1,4.3c-2.1,0-4.3-0.7-5.9-2.2l1.8-2.2c1.3,1,2.6,1.7,4.2,1.7c1.3,0,2-0.5,2-1.3
			v0c0-0.8-0.5-1.2-2.8-1.8c-2.8-0.7-4.6-1.5-4.6-4.3v0c0-2.5,2-4.2,4.9-4.2c2,0,3.8,0.6,5.2,1.8l-1.6,2.3c-1.2-0.9-2.5-1.4-3.6-1.4
			c-1.2,0-1.8,0.5-1.8,1.2v0c0,0.9,0.6,1.2,3,1.8C429.3,165.4,430.9,166.4,430.9,168.9L430.9,168.9z"/>
		<polygon class="st0" points="445.6,161.9 441.4,161.9 441.4,173.1 438.3,173.1 438.3,161.9 434,161.9 434,159.1 445.6,159.1 		"/>
		<polygon class="st0" points="460,173.1 449.3,173.1 449.3,159.1 459.9,159.1 459.9,161.8 452.4,161.8 452.4,164.6 459,164.6 
			459,167.4 452.4,167.4 452.4,170.3 460,170.3 		"/>
		<polygon class="st0" points="511.4,167.5 511.4,173.1 508.3,173.1 508.3,167.5 502.9,159.1 506.5,159.1 509.9,164.7 513.3,159.1 
			516.8,159.1 		"/>
		<path class="st0" d="M469.9,159.1h-5.5v14h5.5c4.4,0,7.4-3.1,7.4-7v0C477.4,162.1,474.3,159.1,469.9,159.1z M474.1,166.1
			c0,2.5-1.7,4.2-4.2,4.2h-2.4v-8.4h2.4C472.4,161.8,474.1,163.6,474.1,166.1L474.1,166.1z"/>
		<path class="st0" d="M409.3,158.8c-4.3,0-7.5,3.3-7.5,7.2v0c0,4,3.1,7.2,7.4,7.2s7.5-3.3,7.5-7.2v0
			C416.8,162,413.7,158.8,409.3,158.8z M413.5,166.1c0,2.4-1.7,4.4-4.2,4.4s-4.2-2-4.2-4.4v0c0-2.4,1.7-4.4,4.2-4.4
			S413.5,163.7,413.5,166.1L413.5,166.1z"/>
		<path class="st0" d="M498.4,165.7c1-0.6,1.8-1.4,1.8-3v0c0-1-0.3-1.7-1-2.4c-0.8-0.8-2.1-1.2-3.7-1.2h-6.5v14h6.7
			c3.2,0,5.2-1.3,5.2-3.8v0C501,167.3,500,166.4,498.4,165.7z M492.1,161.8h3c1.3,0,2,0.5,2,1.4v0c0,1-0.9,1.5-2.2,1.5h-2.8V161.8z
			 M497.9,168.8c0,1-0.8,1.5-2.2,1.5h-3.7v-3.1h3.6C497.2,167.3,497.9,167.9,497.9,168.8L497.9,168.8z"/>
		<polygon class="st0" points="571.4,33.4 573.9,33.4 573.9,48.2 582.2,48.2 582.2,34.9 584.7,34.9 584.7,48.2 593.2,48.2 
			593.2,33.2 595.7,33.2 595.7,50.9 571.4,50.9 		"/>
		<path class="st0" d="M574.9,55.9l2,1.9c-1.9,2.1-3.3,4.3-3.3,7.6c0,5.4,4.4,9.4,10,9.4h0.1c5.6,0,10-4.1,10-9.4
			c0-3.3-1.3-5.5-3.5-7.8l1.8-1.8c2.6,2.5,4.3,5.3,4.3,9.7c0,7-5.5,12.2-12.5,12.2h-0.1c-6.9,0-12.6-5.1-12.6-12.3
			C571,60.9,572.6,58.3,574.9,55.9z"/>
		<path class="st0" d="M574.1,129.6l2.1,1.6c-1.8,2.3-2.6,4.5-2.6,7c0,3.2,1.7,5.2,3.9,5.2h0.1c2.3,0,3.6-1.2,4.7-6.6
			c1.2-5.4,3.2-7.9,6.9-7.9h0.1c4.2,0,6.9,3.5,6.9,8.3c0,3.9-1.3,7-3.9,9.9l-2-1.7c2.3-2.5,3.4-5,3.4-8.3c0-3.3-1.7-5.4-4.1-5.4
			h-0.1c-2.3,0-3.5,1.2-4.6,6.3c-1.2,5.6-3,8.2-7,8.2h-0.1c-3.8,0-6.6-3.4-6.6-8C571.1,134.6,572.1,132.1,574.1,129.6z"/>
		<polygon class="st0" points="571.4,168.8 571.4,151.2 573.9,151.2 573.9,166 582.2,166 582.2,152.8 584.7,152.8 584.7,166 
			593.2,166 593.2,151 595.7,151 595.7,168.8 		"/>
		<path class="st0" d="M571.4,244.4h14c5.2,0,8.2-2.8,8.2-7.4c0-4.5-2.7-7.3-8-7.3h-14.1v-2.7h13.9c7.1,0,10.8,4.1,10.8,10.1
			c0,6-3.7,10.1-10.6,10.1h-14.1V244.4z"/>
		<path class="st0" d="M592.2,300.1l-2-1.7c2.3-2.5,3.4-5,3.4-8.3c0-3.3-1.7-5.4-4.1-5.4h-0.1c-2.3,0-3.5,1.2-4.6,6.3
			c-1.2,5.6-3,8.2-7,8.2h-0.1c-3.8,0-6.6-3.4-6.6-8c0-3.5,1-6.1,3-8.5l2.1,1.6c-1.8,2.3-2.6,4.5-2.6,7c0,3.2,1.7,5.2,3.9,5.2h0.1
			c2.3,0,3.6-1.3,4.7-6.6c1.2-5.4,3.2-7.9,6.9-7.9h0.1c4.2,0,6.9,3.5,6.9,8.3C596.1,294,594.8,297.2,592.2,300.1z"/>
		<path class="st0" d="M595.7,82.9v-2.9L571.3,91v2.6l24.5,11.1v-2.8l-6.4-2.9V85.7L595.7,82.9z M586.9,97.9l-12.4-5.6l12.4-5.5
			V97.9z"/>
		<path class="st0" d="M587.2,120.6v-5.9c0-5.2-2.7-9.5-7.9-9.5h-0.1c-4.8,0-7.7,3.6-7.7,9.1v9.1h24.3v-2.7H587.2z M584.7,120.6H574
			v-6.1c0-3.9,1.8-6.5,5.3-6.5h0.1c3.2,0,5.3,2.6,5.3,6.7V120.6z"/>
		<path class="st0" d="M595.7,177.1v-3.4l-9.9,7.5c-0.7-3.8-3.1-6.6-7.1-6.6h-0.1c-1.9,0-3.6,0.7-4.8,1.9c-1.5,1.5-2.4,3.9-2.4,6.9
			v10.4h24.3v-2.7h-9.4v-6.9L595.7,177.1z M583.8,191.1H574v-7.5c0-3.9,1.8-6.2,4.8-6.2h0.1c3.1,0,5,2.6,5,6.2V191.1z"/>
		<path class="st0" d="M595.7,201.6v-3l-24.5,11.1v2.6l24.5,11.1v-2.8l-6.4-2.9v-13.2L595.7,201.6z M586.9,216.6l-12.4-5.6l12.4-5.5
			V216.6z"/>
		<path class="st0" d="M596.5,254.1l-2-1.9l-2.7,3.2c-2.2-1.9-5.1-2.9-8.2-2.9h-0.1c-6.7,0-12.5,5-12.5,12.4
			c0,7.4,5.9,12.4,12.6,12.4h0.1c6.7,0,12.5-5,12.5-12.4c0-3-1-5.6-2.6-7.7L596.5,254.1z M593.6,264.9c0,5.6-4.5,9.6-10,9.6h-0.1
			c-5.5,0-10-4-10-9.5c0-5.6,4.5-9.6,10-9.6h0.1c2.4,0,4.6,0.8,6.3,2.1l-4.1,4.5l2,1.8l3.9-4.5C592.9,260.8,593.6,262.8,593.6,264.9
			z"/>
	</g>
</g>
</svg>
