<svg version="1.1" id="Layer_1" xmlns="http://www.w3.org/2000/svg" xmlns:xlink="http://www.w3.org/1999/xlink" x="0px" y="0px"
	 viewBox="0 0 35.1 27.9" style="enable-background:new 0 0 35.1 27.9;" xml:space="preserve">
<g>
	<g>
		<path d="M5.5,15.2c0.7,0.7,1.7,0.7,2.4,0L18.7,4.4c1.3-1.3,3.5-1.3,4.8,0c0.7,0.7,1.7,0.7,2.4,0s0.7-1.7,0-2.4
			c-2.6-2.6-6.9-2.6-9.6,0L5.5,12.8C5,13.4,5,14.5,5.5,15.2z"/>
		<path d="M22.3,8c0.7-0.7,0.7-1.7,0-2.4s-1.7-0.7-2.4,0L9.2,16.4c-1.3,1.3-3.5,1.3-4.8,0s-1.3-3.5,0-4.8L15,1
			c-1.3-1.3-3.5-1.3-4.8,0L2,9.2c-2.6,2.6-2.6,6.9,0,9.6c2.6,2.6,6.9,2.6,9.6,0L22.3,8z"/>
		<path d="M23.5,9.2L12.8,20c-0.7,0.7-0.7,1.7,0,2.4c0.7,0.7,1.7,0.7,2.4,0L26,11.6c1.3-1.3,3.5-1.3,4.8,0s1.3,3.5,0,4.8L20.2,27
			c1.3,1.3,3.5,1.3,4.8,0l8.2-8.2c2.6-2.6,2.6-6.9,0-9.6C30.5,6.5,26.2,6.5,23.5,9.2z"/>
		<path d="M29.5,12.8c-0.7-0.7-1.7-0.7-2.4,0L16.3,23.6c-1.3,1.3-3.5,1.3-4.8,0c-0.7-0.7-1.7-0.7-2.4,0s-0.7,1.7,0,2.4
			c2.6,2.6,6.9,2.6,9.6,0l10.8-10.8C30.3,14.5,30.3,13.4,29.5,12.8z"/>
	</g>
</g>
</svg>
