<svg version="1.1" id="Layer_1" xmlns="http://www.w3.org/2000/svg" xmlns:xlink="http://www.w3.org/1999/xlink" x="0px" y="0px"
	 viewBox="0 0 359.8 318.5" style="enable-background:new 0 0 359.8 318.5;" xml:space="preserve">
<style type="text/css">
	.st0{fill:#FFFFFF;}
</style>
<g>
	<rect class="bg" width="359.8" height="130.6" fill="#000000"/>
	<rect class="bg" y="147.6" width="359.8" height="170.9" fill="#000000"/>
</g>
<polygon fill="#ffffff" points="318.1,218.2 309.1,228 298.8,219.9 294.9,199.7 311.2,181.8 "/>
<polygon fill="#ffffff" points="308.3,179.6 292.1,197.4 272.4,197.4 249.5,179.6 "/>
<polygon fill="#ffffff" points="232.7,218.2 223.7,228 213.4,219.9 209.5,199.7 225.8,181.8 "/>
<polygon fill="#ffffff" points="221.3,230.7 212.4,240.5 195,240.5 181.9,230.3 188.8,222.6 210.9,222.6 "/>
<polygon fill="#ffffff" points="222.9,179.6 206.7,197.4 187,197.4 164.1,179.6 "/>
<polygon fill="#ffffff" points="100.5,218.2 91.6,228 81.3,219.9 77.4,199.7 93.7,181.8 "/>
<polygon fill="#ffffff" points="89.1,230.7 80.3,240.5 62.9,240.5 49.8,230.3 56.7,222.6 78.8,222.6 "/>
<polygon fill="#ffffff" points="90.8,179.6 74.6,197.4 54.8,197.4 32,179.6 "/>
<polygon fill="#ffffff" points="29.5,182.3 52.4,200.1 55.8,218.2 46.9,228 36.5,219.9 "/>
<polygon fill="#ffffff" points="44.5,263.1 67.7,263.1 48.7,284.9 "/>
<polygon fill="#ffffff" points="52.1,286.5 67.6,268.7 87.4,268.7 110.3,286.5 "/>
<polygon fill="#ffffff" points="89.9,266 85.1,240.6 92,233 105.2,243.2 112.8,283.8 "/>
<polygon fill="#ffffff" points="120.9,197.4 140.4,197.4 145.1,222.6 125.6,222.6 "/>
<polygon fill="#ffffff" points="134.2,268.7 128.9,240.4 148.5,240.5 153.8,268.7 "/>
<polygon fill="#ffffff" points="161.6,182.3 188.2,203 165.5,203 "/>
<polygon fill="#ffffff" points="176.7,263.1 199.8,263.1 180.8,284.9 "/>
<polygon fill="#ffffff" points="184.3,286.5 199.8,268.7 219.5,268.7 242.4,286.5 "/>
<polygon fill="#ffffff" points="222,266 217.3,240.6 224.2,233 237.3,243.2 244.9,283.8 "/>
<polygon fill="#ffffff" points="254.1,219.9 247,182.3 269.9,200.1 273.3,218.2 264.4,228 254.3,220.1 "/>
<polygon fill="#ffffff" points="257.9,240.6 264.8,233 277.9,243.2 282.3,266.4 266.2,284.9 "/>
<polygon fill="#ffffff" points="269.7,286.5 285.2,268.7 304.9,268.7 327.8,286.5 "/>
<polygon fill="#ffffff" points="307.4,266 302.7,240.6 309.6,233 322.7,243.2 330.3,283.8 "/>
<polygon fill="#ffffff" points="64.8,97.8 33.3,97.8 33.3,32.8 46.4,32.8 46.4,86.8 64.8,86.8 "/>
<polygon fill="#ffffff" points="118.9,42.4 110.1,42.4 110.1,88.2 118.9,88.2 118.9,97.8 88.3,97.8 88.3,88.2 97,88.2 97,42.4 88.3,42.4 88.3,32.8 118.9,32.8 "/>
<polygon fill="#ffffff" points="173.1,97.8 154,97.8 141.9,32.8 155.1,32.8 164,87.9 172.8,32.8 185,32.8 "/>
<polygon fill="#ffffff" points="243.8,97.8 209.2,97.8 209.2,32.8 243.6,32.8 243.6,43.6 222.3,43.6 222.3,59.4 241.6,59.4 241.6,70.2 222.3,70.2 222.3,87 243.8,87 "/>
<rect fill="#ffffff" x="274.5" y="92.5" width="51.9" height="5.4"/>
<polygon fill="#ffffff" points="326.4,39.1 318.8,39.1 318.8,69.1 311.5,69.1 311.5,39.1 303.8,39.1 303.8,32.8 326.4,32.8 "/>
<path fill="#ffffff" d="M292.6,32.8h-10.7l-7.3,36.3h6.8l1.5-8.3h8.4l1.5,8.3h7.2L292.6,32.8z M283.8,55l3.2-18.2l3.2,18.2H283.8z"/>
</svg>
